:SAMPLES-PER-SECOND 30
:FULLY-SPECIFIED
:DEGREES
342
root  -7.75125 34.4013 -21.9444 178.575 79.9702 172.582
RightUpLeg  -12.3807 -20.3837 -9.11992
RightLeg  9.07642 1.39496 0.132753
RightFoot  12.6934 0.00694792 0.464362
RightToes  -32.5792 -0.165322 -0.269486
Spine  -0.983306 1.77293 -3.58975
Spine1  -2.11328 3.55074 -6.43221
HEad  -40.9377 -9.49508 -4.56757
LeftShoulder1  -1.94126e-019 -3.10601e-018 -2.51263e-017
LeftArm  -25.7049 25.0495 -76.9582
LeftForeArm  29.4004 -10.9297 -1.89502
LeftHand  -0.433122 -0.341363 8.86761
RightShoulder  -4.96962e-017 0 -2.36833e-017
RightArm  -33.7072 -24.464 75.4355
RightForeArm  47.4355 23.5422 2.60613
RightHand  -0.253216 -1.16856 -6.86188
LeftUpLeg  -10.5525 1.77664 -5.72251
LeftLeg  13.0975 18.0441 2.93868
LeftFoot  -1.92223 -0.0105776 -0.468954
LeftToes  -7.79749 1.46665e-006 1.03344e-007
343
root  -7.73275 34.4059 -22.0209 178.749 79.7393 172.846
RightUpLeg  -12.2612 -20.8994 -9.19581
RightLeg  9.18299 1.13733 0.11056
RightFoot  12.8661 0.0132275 0.411006
RightToes  -32.819 -0.163563 -0.268429
Spine  -0.921072 1.71567 -3.59741
Spine1  -1.98938 3.438 -6.44541
HEad  -39.7729 -9.43889 -4.56607
LeftShoulder1  -1.94126e-019 -3.10601e-018 -2.51263e-017
LeftArm  -25.3749 24.9242 -76.9009
LeftForeArm  28.6282 -11.4601 -1.97023
LeftHand  -0.430113 -0.265098 8.85275
RightShoulder  -4.96962e-017 0 -2.36833e-017
RightArm  -33.5773 -23.8856 74.931
RightForeArm  46.3723 25.3301 3.01337
RightHand  -0.235199 -1.11328 -6.2862
LeftUpLeg  -10.2994 1.61037 -5.80719
LeftLeg  12.8214 18.0143 2.84657
LeftFoot  -1.73284 -0.00856772 -0.40498
LeftToes  -7.52095 1.46665e-006 1.03344e-007
344
root  -7.71591 34.4123 -22.0853 178.831 79.6545 173.02
RightUpLeg  -12.2468 -21.586 -9.1709
RightLeg  9.33541 0.83321 0.0835073
RightFoot  13.076 0.0205414 0.345759
RightToes  -32.7904 -0.161942 -0.267098
Spine  -0.873712 1.70756 -3.58505
Spine1  -1.89675 3.4221 -6.41999
HEad  -38.7079 -9.32996 -4.64608
LeftShoulder1  -1.94126e-019 -3.10601e-018 -2.51263e-017
LeftArm  -25.2624 24.7405 -76.8595
LeftForeArm  28.1092 -11.9815 -2.03801
LeftHand  -0.425065 -0.237396 8.85556
RightShoulder  -4.96962e-017 0 -2.36833e-017
RightArm  -33.8245 -23.301 74.3944
RightForeArm  44.5088 27.5277 3.55702
RightHand  -0.227728 -1.06984 -6.0255
LeftUpLeg  -10.096 1.77648 -5.88122
LeftLeg  12.5596 17.859 2.74081
LeftFoot  -1.25491 -0.00443581 -0.243493
LeftToes  -7.0346 1.46665e-006 1.03344e-007
345
root  -7.70324 34.422 -22.1424 178.954 79.61 173.238
RightUpLeg  -12.3325 -22.6109 -9.04344
RightLeg  9.54284 0.609573 0.0635901
RightFoot  13.326 0.0274758 0.296248
RightToes  -32.3893 -0.160715 -0.265716
Spine  -0.791646 1.73726 -3.55939
Spine1  -1.73661 3.48281 -6.36949
HEad  -37.7135 -9.2263 -4.81963
LeftShoulder1  -1.94126e-019 -3.10601e-018 -2.51263e-017
LeftArm  -25.0332 24.3552 -76.802
LeftForeArm  28.1349 -12.4446 -2.09119
LeftHand  -0.421023 -0.264289 8.73252
RightShoulder  -4.96962e-017 0 -2.36833e-017
RightArm  -34.2013 -22.9072 73.8845
RightForeArm  41.9669 30.811 4.40128
RightHand  -0.218228 -1.22722 -5.96675
LeftUpLeg  -9.80146 1.7029 -5.91957
LeftLeg  12.1901 17.8464 2.62333
LeftFoot  -0.721042 -0.00145333 -0.0694419
LeftToes  -6.25115 1.46665e-006 1.03344e-007
346
root  -7.69407 34.4368 -22.1964 178.848 79.5125 173.211
RightUpLeg  -12.4965 -23.6503 -8.93331
RightLeg  9.85251 0.19677 0.0222817
RightFoot  13.5711 0.0395356 0.201557
RightToes  -31.8927 -0.159304 -0.264509
Spine  -0.70371 1.76047 -3.55118
Spine1  -1.56428 3.53089 -6.35172
HEad  -36.9713 -9.09675 -4.98091
LeftShoulder1  -1.94126e-019 -3.10601e-018 -2.51263e-017
LeftArm  -24.3596 23.8547 -76.6535
LeftForeArm  28.2247 -12.8289 -2.13071
LeftHand  -0.414167 -0.232735 8.6367
RightShoulder  -4.96962e-017 0 -2.36833e-017
RightArm  -34.3624 -22.4973 73.4426
RightForeArm  40.2119 34.6888 5.41448
RightHand  -0.216015 -1.50183 -6.30124
LeftUpLeg  -9.45601 1.70594 -6.01417
LeftLeg  11.6549 17.7986 2.44993
LeftFoot  -0.477692 -0.000630487 0.0102586
LeftToes  -5.79746 1.46665e-006 1.03344e-007
347
root  -7.6947 34.4566 -22.2432 178.918 79.3089 173.304
RightUpLeg  -12.6766 -24.5796 -8.79922
RightLeg  10.1179 -0.40759 -0.044958
RightFoot  13.8658 0.0582687 0.0580668
RightToes  -31.5145 -0.157538 -0.263701
Spine  -0.635951 1.743 -3.54058
Spine1  -1.42806 3.49649 -6.32691
HEad  -36.3773 -8.89155 -5.08994
LeftShoulder1  -1.94126e-019 -3.10601e-018 -2.51263e-017
LeftArm  -23.5846 23.3071 -76.4557
LeftForeArm  28.467 -13.0973 -2.1541
LeftHand  -0.416688 -0.368503 8.49585
RightShoulder  -4.96962e-017 0 -2.36833e-017
RightArm  -34.4362 -21.7073 73.0665
RightForeArm  38.8772 38.267 6.42577
RightHand  -0.212742 -1.88152 -6.80607
LeftUpLeg  -9.07546 1.55092 -6.08262
LeftLeg  10.9183 17.7393 2.21406
LeftFoot  -0.138702 -4.94751e-005 0.120468
LeftToes  -5.31851 1.46665e-006 1.03344e-007
348
root  -7.70635 34.4806 -22.2781 179.22 78.9848 173.589
RightUpLeg  -12.788 -25.1909 -8.68086
RightLeg  10.2161 -1.13634 -0.129075
RightFoot  14.3417 0.0838638 -0.125136
RightToes  -31.5594 -0.156281 -0.263515
Spine  -0.581457 1.71362 -3.52233
Spine1  -1.31664 3.43764 -6.28677
HEad  -35.7356 -8.86499 -5.15672
LeftShoulder1  -1.94126e-019 -3.10601e-018 -2.51263e-017
LeftArm  -22.7899 22.6292 -76.2582
LeftForeArm  28.6589 -13.1826 -2.16003
LeftHand  -0.416598 -0.401606 8.44348
RightShoulder  -4.96962e-017 0 -2.36833e-017
RightArm  -34.5596 -20.6083 72.8144
RightForeArm  37.683 41.4449 7.41664
RightHand  -0.199176 -2.43248 -7.45322
LeftUpLeg  -8.79409 1.31538 -6.11178
LeftLeg  10.2537 17.6616 2.00047
LeftFoot  0.234061 -0.000160315 0.240186
LeftToes  -4.91923 1.46665e-006 1.03344e-007
349
root  -7.73589 34.5045 -22.2954 179.813 78.5308 174.12
RightUpLeg  -12.8709 -25.3743 -8.61664
RightLeg  10.3185 -1.73603 -0.200826
RightFoot  14.7366 0.107387 -0.285534
RightToes  -31.7845 -0.1564 -0.264175
Spine  -0.53974 1.71876 -3.49015
Spine1  -1.22942 3.44556 -6.21756
HEad  -35.1714 -9.06718 -5.26675
LeftShoulder1  -1.94126e-019 -3.10601e-018 -2.51263e-017
LeftArm  -21.9491 21.7836 -76.0914
LeftForeArm  28.9394 -13.1354 -2.15345
LeftHand  -0.416336 -0.430427 8.40376
RightShoulder  -4.96962e-017 0 -2.36833e-017
RightArm  -34.8104 -19.2694 72.7263
RightForeArm  36.6839 44.0872 8.32384
RightHand  -0.182946 -2.89191 -7.98656
LeftUpLeg  -8.63977 1.09277 -6.07525
LeftLeg  9.64517 17.4499 1.79284
LeftFoot  0.596205 -0.000997957 0.353425
LeftToes  -5.10784 1.46665e-006 1.03344e-007
350
root  -7.76918 34.5248 -22.3184 -179.588 77.8163 174.614
RightUpLeg  -12.8644 -25.874 -8.68412
RightLeg  10.4101 -1.77603 -0.20836
RightFoot  15.0164 0.112333 -0.307062
RightToes  -32.2433 -0.15967 -0.267251
Spine  -0.485552 1.69477 -3.45735
Spine1  -1.11186 3.39464 -6.14643
HEad  -34.7632 -9.42912 -5.40017
LeftShoulder1  -1.94126e-019 -3.10601e-018 -2.51263e-017
LeftArm  -21.0506 20.8009 -75.9847
LeftForeArm  29.2672 -13.0346 -2.14185
LeftHand  -0.416164 -0.451174 8.37228
RightShoulder  -4.96962e-017 0 -2.36833e-017
RightArm  -34.9174 -17.6623 72.8193
RightForeArm  35.7159 46.1433 9.10683
RightHand  -0.15839 -3.40189 -8.488
LeftUpLeg  -8.58454 0.79687 -6.06777
LeftLeg  9.15235 17.0327 1.60563
LeftFoot  0.850985 -0.00196644 0.426392
LeftToes  -4.87854 1.46665e-006 1.03344e-007
351
root  -7.80946 34.5432 -22.3341 -179.04 77.0002 175.031
RightUpLeg  -12.8644 -26.628 -8.74169
RightLeg  10.4787 -1.68863 -0.200122
RightFoot  15.3386 0.113319 -0.296628
RightToes  -33.0452 -0.165443 -0.272234
Spine  -0.431141 1.71196 -3.41817
Spine1  -0.997401 3.42894 -6.0671
HEad  -34.2667 -9.74449 -5.63949
LeftShoulder1  -1.94126e-019 -3.10601e-018 -2.51263e-017
LeftArm  -19.9997 19.8293 -75.9345
LeftForeArm  29.6242 -13.0653 -2.14194
LeftHand  -0.407341 -0.42526 8.23063
RightShoulder  -4.96962e-017 0 -2.36833e-017
RightArm  -34.9565 -15.9941 73.1949
RightForeArm  34.6563 47.9211 9.85268
RightHand  -0.120772 -4.07167 -9.28614
LeftUpLeg  -8.55924 0.340858 -6.06139
LeftLeg  8.63468 16.6949 1.42492
LeftFoot  1.23618 -0.00723287 0.535754
LeftToes  -5.17954 1.46665e-006 1.03344e-007
